# xmcd
#
# Track frame offsets:
#	150
#	17099
#	35815
#	54284
#	62814
#	81267
#	108333
#	123512
#	139972
#	158130
#	177590
#	191562
#	208908
#	229823
#	248057
#	261850
#	283763
#	290620
#
# Disc length: 4086 seconds
#
# Revision: 0
# Processed by: cddbd v1.5.2PL0 Copyright (c) Steve Scherf et al.
# Submitted via: EasyCDDAExtractor 8.2.2.1
#
DISCID=160ff412
DTITLE=Ohmega Watts - Watts Happening
DYEAR=2007
DGENRE=Hip-Hop
TTITLE0=What's it Worth
TTITLE1=Triple Double (feat. Theory Hazit)
TTITLE2=No Delay (feat. Surreal of the Sound Providers)
TTITLE3=Shorty Shouts
TTITLE4=Model Citizen
TTITLE5=Few and Far Between
TTITLE6=Eyes and Ears (feat. Jnerio Jarel)
TTITLE7=Roc the Bells (feat. Lightheaded)
TTITLE8=Adaptacao (feat. Tita Lima)
TTITLE9=SayWhayUSay/Teaspoon of Sugar
TTITLE10=Are You Satisfied (feat. Sugar Pie DeSanto)
TTITLE11=Dedicated
TTITLE12=Memory Lane (feat. Genahral Victor)
TTITLE13=Found/Clap
TTITLE14=Work for Wealth (feat. Ragen Fykes and Barry Hampton)
TTITLE15=The Platypus Strut
TTITLE16=Freak Out
TTITLE17=Gone With the Wind
EXTD=
EXTT0=
EXTT1=
EXTT2=
EXTT3=
EXTT4=
EXTT5=
EXTT6=
EXTT7=
EXTT8=
EXTT9=
EXTT10=
EXTT11=
EXTT12=
EXTT13=
EXTT14=
EXTT15=
EXTT16=
EXTT17=
PLAYORDER=
